<?xml version="1.0" encoding="UTF-8" standalone="no"?>
<svg
   width="512"
   height="512"
   viewBox="0 0 512 512"
   version="1.1"
   id="svg1"
   sodipodi:docname="favicon.svg"
   inkscape:version="1.3.2 (091e20ef0f, 2023-11-25, custom)"
   xmlns:inkscape="http://www.inkscape.org/namespaces/inkscape"
   xmlns:sodipodi="http://sodipodi.sourceforge.net/DTD/sodipodi-0.dtd"
   xmlns="http://www.w3.org/2000/svg"
   xmlns:svg="http://www.w3.org/2000/svg">
  <defs
     id="defs1" />
  <sodipodi:namedview
     id="namedview1"
     pagecolor="#ffffff"
     bordercolor="#000000"
     borderopacity="0.25"
     inkscape:showpageshadow="2"
     inkscape:pageopacity="0.0"
     inkscape:pagecheckerboard="0"
     inkscape:deskcolor="#d1d1d1"
     inkscape:zoom="1"
     inkscape:cx="256"
     inkscape:cy="255.5"
     inkscape:window-width="1119"
     inkscape:window-height="1343"
     inkscape:window-x="1415"
     inkscape:window-y="71"
     inkscape:window-maximized="1"
     inkscape:current-layer="svg1" />
  <path
     d="m 253.92038,73.048594 c -3.27944,10.618653 -4.0787,20.346759 -2.06718,25.156823 1.54844,3.704673 1.46606,4.224533 -1.68091,10.575243 -11.66059,23.52823 -26.84552,47.94368 -36.63374,58.90519 -4.3236,4.84123 -7.80341,7.45387 -13.14112,9.8628 -5.51805,2.4913 -9.39749,5.46462 -16.16564,12.38861 -20.43137,20.90224 -60.12079,50.67877 -88.354451,66.2856 -11.45354,6.33178 -50.9092,24.81507 -75.119817,35.18994 C 4.7009715,298.29338 -5.4824653e-7,301.57393 -5.4824653e-7,305.89531 c 0,1.40818 2.23972404824653,5.83197 4.97704104824653,9.83052 5.1963375,7.58968 11.8887945,20.20316 14.8008805,27.89302 1.034147,2.73176 2.059389,11.05057 2.611528,21.1939 0.500932,9.18376 1.364762,22.9594 1.92024,30.61253 0.966243,13.31144 0.908358,14.0261 -1.324688,16.47956 -2.14733,2.35772 -2.202989,2.80633 -0.693513,5.56591 7.089863,12.95968 64.866291,22.72786 159.157342,26.90786 31.79696,1.40929 117.23153,1.42154 151.39289,0.0223 84.74439,-3.47425 143.09522,-13.09771 156.65824,-25.83921 3.10355,-2.91542 3.10801,-3.17257 0.13135,-6.95739 -1.96254,-2.49576 -2.44455,-4.76665 -2.66607,-12.58565 -0.17032,-5.98781 0.30724,-11.17969 1.28239,-13.94261 1.00965,-2.862 1.55289,-9.24944 1.55289,-18.25843 0,-11.8387 0.40631,-15.06805 2.79075,-22.17238 3.46645,-10.32589 8.30657,-19.99833 14.61943,-29.21771 4.97593,-7.26798 5.97334,-11.57711 3.462,-14.95673 -1.31022,-1.76328 -14.68845,-7.97373 -53.71108,-24.93196 -23.762,-10.32589 -47.9114,-22.51524 -59.25918,-29.909 -22.25476,-14.50032 -49.82941,-36.80962 -66.5305,-53.8224 -7.37261,-7.51064 -11.89102,-11.10734 -17.11073,-13.62091 -13.90923,-6.69579 -30.53684,-28.39062 -48.23979,-62.94048 -6.11917,-11.94222 -6.31731,-12.58898 -4.7544,-15.58456 0.89722,-1.718754 1.63303,-5.546991 1.63749,-8.505831 0.007,-5.584839 -3.89726,-22.832497 -5.55367,-24.53344 -0.52542,-0.538781 -1.96143,2.31876 -3.23046,6.426405 M 220.96682,184.47821 c -5.71842,2.02043 -8.21195,5.07723 -16.34709,20.03618 -16.26917,29.91568 -32.6452,49.40752 -68.48079,81.51506 -9.97857,8.93997 -18.14154,16.45173 -18.14154,16.69217 0,0.24157 3.13138,-1.38257 6.95739,-3.60893 25.71008,-14.95784 56.49849,-27.25963 79.15065,-31.62442 33.23519,-6.40414 87.46279,-5.22751 117.17364,2.54362 16.40721,4.29021 47.13774,17.53375 65.09338,28.0511 4.64531,2.72173 8.77856,4.9481 9.18487,4.9481 0.40631,0 -8.90435,-8.7062 -20.69184,-19.34823 -34.99514,-31.59548 -52.53222,-53.09438 -69.90233,-85.69617 -6.10692,-11.46022 -7.48616,-12.68917 -16.37047,-14.58492 -4.64754,-0.99074 -4.68539,0.28052 -0.39295,12.98082 7.39042,21.86403 16.36713,37.42299 38.39257,66.54274 2.88871,3.81822 -10.445,-8.2498 -15.20163,-13.75894 -14.9122,-17.27215 -23.98464,-33.56358 -29.82551,-53.55746 -1.96811,-6.73476 -3.73473,-12.4298 -3.92731,-12.65578 -0.19258,-0.22597 -3.89614,0.45752 -8.22976,1.5195 -9.81383,2.40559 -16.45619,2.4401 -25.46073,0.13247 -3.86051,-0.98851 -7.62975,-1.79779 -8.3767,-1.79779 -0.76921,0 -1.97701,3.01116 -2.78963,6.95739 -3.36627,16.356 -12.67693,35.35358 -25.30154,51.63054 -6.64125,8.5626 -23.14419,24.90079 -25.15126,24.90079 -0.51095,0 2.92879,-4.63307 7.64423,-10.29694 18.65695,-22.40504 34.33724,-51.20976 37.57215,-69.01735 0.86495,-4.76108 0.35733,-4.95366 -6.5778,-2.50355 m 25.60321,94.12297 c -11.58601,9.15147 -26.64737,16.6777 -50.0821,25.02324 l -8.89433,3.167 3.88501,1.03304 c 6.3585,1.68981 26.61064,0.0801 34.06006,-2.70727 7.30136,-2.73175 16.838,-10.97153 21.08034,-18.21167 2.50578,-4.27796 6.42307,-12.88064 5.80971,-12.7593 -0.1603,0.0323 -2.79743,2.03712 -5.85869,4.45496 m 12.80161,-3.88947 c 0,0.40409 1.61968,3.81043 3.59781,7.56965 4.48501,8.51808 14.71293,18.99758 21.44992,21.97757 6.08243,2.69168 20.84992,4.40598 30.44444,3.53658 8.41678,-0.76364 7.71547,-1.45715 -7.6253,-7.54292 -14.56712,-5.77965 -24.50116,-10.86244 -35.62186,-18.22726 -12.75151,-8.44461 -12.24501,-8.14182 -12.24501,-7.31362 m -93.08882,42.16404 c -13.58528,7.84571 -25.61211,16.2469 -31.95058,22.32043 l -5.20301,4.98483 v 22.61654 c 0,16.10665 0.38405,23.00059 1.33582,23.95236 0.98294,0.98294 10.66652,1.33582 36.64375,1.33582 19.41948,0 36.10053,-0.3039 37.069,-0.6757 1.49612,-0.57441 1.75883,-3.12916 1.74436,-16.97604 -0.0178,-18.35194 -1.51059,-26.68857 -6.57224,-36.71612 -5.18854,-10.2769 -18.79164,-27.04033 -21.75048,-26.80099 -0.63785,0.0512 -5.73066,2.73286 -11.31662,5.95887 m 157.91837,2.16959 c -17.18421,18.09034 -19.4551,23.88334 -20.07292,51.19974 -0.35955,15.86731 -0.14582,20.09518 1.05196,20.85437 0.82598,0.52431 16.59311,0.95956 35.03966,0.96958 28.7602,0.0145 33.73835,-0.22597 34.95061,-1.68647 1.89575,-2.28425 0.89277,-46.95963 -1.12654,-50.15223 -3.35402,-5.30543 -31.83704,-25.52195 -40.28832,-28.59656 -1.33471,-0.48535 -4.06312,1.63081 -9.55445,7.41157 m -277.163644,13.4851 0.27273,10.01865 8.070577,0.32727 c 4.438261,0.17922 8.070577,0.0211 8.070577,-0.35288 0,-0.37403 -2.463474,-3.52656 -5.473521,-7.00637 -3.010047,-3.47981 -6.764813,-7.82902 -8.343307,-9.66577 l -2.870899,-3.33955 0.273843,10.01865 m 412.774934,-1.10317 c -2.71839,4.01637 -5.5982,7.84794 -6.4008,8.51363 -2.74734,2.2798 -1.45604,3.16478 4.61303,3.16478 5.96889,0 6.08354,-0.0612 6.74811,-3.61785 0.37292,-1.99037 0.52097,-6.26054 0.32951,-9.491 l -0.34843,-5.87315 -4.94142,7.30359 m -424.448884,5.8342 -5.864248,11.96671 -0.387387,15.39755 c -0.37403,14.88103 -0.299447,15.48994 2.226366,18.20054 1.438232,1.54176 5.619347,4.3314 9.292851,6.19821 6.108035,3.10466 7.535136,3.37851 16.697745,3.20596 6.163694,-0.11688 12.374142,0.46754 16.141154,1.51727 10.778952,3.00337 13.358192,3.27499 13.358192,1.40818 0,-2.27646 -9.26947,-10.66318 -13.945953,-12.61682 -6.083545,-2.54251 -14.808673,-2.03267 -20.006125,1.16884 -5.886511,3.62564 -7.934768,3.50208 -10.060948,-0.61002 -1.506136,-2.91209 -1.717641,-7.46723 -1.420421,-30.61365 0.19258,-14.95561 0.232655,-27.1906 0.09128,-27.1906 -0.142488,0.001 -2.897615,5.38558 -6.122507,11.96783 M 471.03559,353.9325 c -0.1525,33.1606 -0.87719,35.14318 -10.92478,29.89007 -11.5014,-6.01453 -19.96159,-4.68427 -30.64704,4.81786 -8.55703,7.6086 -5.41118,9.81048 8.00824,5.60376 5.51471,-1.72766 9.76373,-2.20855 17.92893,-2.02599 10.46392,0.23377 10.86466,0.14694 18.05694,-3.87499 10.52848,-5.88763 10.77672,-6.41973 10.77672,-23.09298 v -14.09401 l -4.4416,-8.7563 c -8.8665,-17.47697 -8.6216,-17.79868 -8.75741,11.53258 m -252.85172,-8.07392 v 13.94484 h 14.89216 c 11.37784,0 15.19495,-0.36623 16.179,-1.55289 0.84825,-1.0219 1.17997,-5.68057 0.97181,-13.63649 l -0.31726,-12.0836 -15.86286,-0.30835 -15.86285,-0.30947 v 13.94596 m 45.88095,-12.94298 c -1.05975,0.67236 -1.34807,4.19781 -1.11319,13.61868 l 0.31615,12.71255 12.8016,0.32282 c 18.97421,0.47867 17.81093,1.29575 17.81093,-12.4977 0,-6.36741 -0.3039,-12.36858 -0.6757,-13.33705 -0.5655,-1.47385 -2.88315,-1.75771 -14.19308,-1.74435 -7.43495,0.01 -14.16081,0.42523 -14.94671,0.92505 m 120.99631,2.20967 c 0.67348,1.26012 1.73768,2.60707 2.36329,2.99335 0.62561,0.38627 3.57554,4.17443 6.55553,8.41789 l 5.41786,7.71547 0.43637,-4.57518 c 0.40075,-4.20561 0.0612,-4.90135 -4.21117,-8.63385 -2.55587,-2.23305 -6.25386,-4.99263 -8.21752,-6.13364 -3.55662,-2.06607 -3.56552,-2.06495 -2.34436,0.21596 m 31.12348,2.1362 c -8.61047,9.1281 -8.75963,9.50658 -8.75963,22.13564 v 11.53814 h 6.67909 6.6791 v -18.92411 c 0,-10.40826 -0.14916,-18.92411 -0.33061,-18.92411 -0.18145,0 -2.10281,1.87905 -4.26795,4.17444 M 91.281009,353.0464 c 0,17.54043 0.0278,17.73746 2.50466,18.09813 1.377,0.20037 3.88167,0.17811 5.56591,-0.049 l 3.061261,-0.41299 v -11.6272 -11.62719 l -4.731031,-5.99561 c -2.60262,-3.29724 -5.10729,-6.02232 -5.56592,-6.05683 -0.45863,-0.0345 -0.83488,7.91808 -0.83488,17.67067 m 23.655131,-11.96449 c -5.32324,4.12212 -5.84421,4.9225 -5.84421,8.98227 v 4.45719 l 5.67501,-7.09988 c 9.68469,-12.11366 9.72811,-13.74225 0.1692,-6.33958 m 269.11199,29.81438 c 0,17.02057 0.19704,18.98979 1.99594,19.95269 2.99335,1.60187 14.94226,2.03156 15.46211,0.55659 0.23934,-0.68015 -1.33693,-3.35736 -3.50207,-5.94996 -3.17925,-3.80486 -3.93733,-5.64272 -3.93733,-9.54443 0,-2.65717 0.48201,-6.09913 1.07088,-7.64868 0.93285,-2.45234 0.39296,-3.68018 -4.17443,-9.49768 -2.88426,-3.67461 -5.62047,-6.69691 -6.08021,-6.71694 -0.45974,-0.02 -0.83489,8.4613 -0.83489,18.84841 M 46.753685,361.96411 c 0,4.86238 0.41633,9.09693 0.925055,9.41196 0.508724,0.31392 2.239724,-3.15698 3.84716,-7.71436 2.824146,-8.01157 2.850862,-8.32326 0.817077,-9.41196 -4.902458,-2.62377 -5.589292,-1.67645 -5.589292,7.71436 m 409.653565,-7.67094 c -10e-4,0.33729 0.45196,1.08869 1.00632,1.66977 0.55548,0.58108 2.28759,4.06312 3.8505,7.73662 l 2.84196,6.6791 0.0456,-8.62605 0.0456,-8.62717 -3.89392,0.27829 c -2.14176,0.15251 -3.89502,0.55326 -3.89614,0.88944 m -341.85961,5.92324 -5.05719,6.3752 1.10539,6.09802 c 0.91059,5.02379 0.77812,6.78708 -0.75585,10.00195 -2.52581,5.29652 -2.47906,10.50733 0.0946,10.50733 3.3607,0 9.53553,-2.12061 10.47172,-3.59781 1.07199,-1.68758 1.03303,-29.19545 -0.0468,-33.05708 -0.71911,-2.57368 -0.99518,-2.39891 -5.81193,3.67239 m 101.40986,23.33566 c 0,5.23307 0.46642,9.8038 1.03637,10.15557 0.56995,0.35288 2.9633,-3.03677 5.31879,-7.53069 l 4.28242,-8.17299 -3.37072,-1.14323 c -1.85345,-0.62895 -4.24679,-1.52173 -5.31879,-1.9837 -1.76885,-0.76364 -1.94807,0.0345 -1.94807,8.67504 m 73.92314,-7.28244 -3.44307,1.90131 3.462,7.58746 c 1.90465,4.17332 3.82935,7.22122 4.27796,6.77149 1.07756,-1.07645 1.05975,-18.26845 -0.0189,-18.20833 -0.45975,0.0256 -2.38444,0.90167 -4.27797,1.94807 m -199.079421,24.3108 c -0.4397,10.18228 -1.2924,19.8102 -1.89575,21.39538 -0.87607,2.3054 -0.70575,3.16811 0.8527,4.3069 2.2631,1.6553 15.541151,1.94473 16.520751,0.36067 0.36178,-0.58553 -0.17032,-2.9644 -1.1822,-5.28762 -1.34695,-3.09353 -1.99148,-8.91325 -2.40893,-21.75605 l -0.56883,-17.53263 h -5.258681 -5.25979 l -0.79927,18.51335 m 321.510631,-17.6985 -5.68837,0.40409 -0.70464,7.46055 c -0.38739,4.10431 -0.70798,11.86987 -0.71244,17.25768 -0.006,6.49431 -0.56772,10.87802 -1.66977,13.00865 -2.45346,4.7455 -0.0634,6.69469 8.2075,6.69469 8.47021,0 10.53071,-1.5195 9.04572,-6.67131 -0.61559,-2.13954 -1.11986,-11.78193 -1.11986,-21.42877 0,-9.64796 -0.37514,-17.44803 -0.83489,-17.33449 -0.45974,0.11355 -3.39409,0.38739 -6.52325,0.60891"
     stroke="none"
     fill="#000000"
     fill-rule="evenodd"
     id="path1"
     style="stroke-width:1.11318;fill:#000000;fill-opacity:1" />
</svg>
