<?xml version="1.0" encoding="UTF-8" standalone="no"?>
<svg
   width="256"
   height="256"
   viewBox="0 0 256 256"
   version="1.1"
   id="svg1"
   sodipodi:docname="ogp.svg"
   inkscape:version="1.3.2 (091e20e, 2023-11-25, custom)"
   inkscape:export-filename="ogp.png"
   inkscape:export-xdpi="96"
   inkscape:export-ydpi="96"
   xmlns:inkscape="http://www.inkscape.org/namespaces/inkscape"
   xmlns:sodipodi="http://sodipodi.sourceforge.net/DTD/sodipodi-0.dtd"
   xmlns:xlink="http://www.w3.org/1999/xlink"
   xmlns="http://www.w3.org/2000/svg"
   xmlns:svg="http://www.w3.org/2000/svg">
  <defs
     id="defs1">
    <linearGradient
       id="linearGradient2"
       inkscape:collect="always">
      <stop
         style="stop-color:#9b897f;stop-opacity:1;"
         offset="0"
         id="stop2" />
      <stop
         style="stop-color:#5d5145;stop-opacity:1;"
         offset="1"
         id="stop5" />
    </linearGradient>
    <radialGradient
       inkscape:collect="always"
       xlink:href="#linearGradient2"
       id="radialGradient3"
       cx="128"
       cy="128"
       fx="128"
       fy="128"
       r="127.99998"
       gradientUnits="userSpaceOnUse"
       gradientTransform="matrix(1.6928353,0,0,1.6928353,-88.682921,-88.682921)" />
  </defs>
  <sodipodi:namedview
     id="namedview1"
     pagecolor="#ffffff"
     bordercolor="#000000"
     borderopacity="0.25"
     inkscape:showpageshadow="2"
     inkscape:pageopacity="0.0"
     inkscape:pagecheckerboard="0"
     inkscape:deskcolor="#d1d1d1"
     inkscape:zoom="1"
     inkscape:cx="257"
     inkscape:cy="188.5"
     inkscape:window-width="2560"
     inkscape:window-height="1369"
     inkscape:window-x="-8"
     inkscape:window-y="-8"
     inkscape:window-maximized="1"
     inkscape:current-layer="svg1" />
  <circle
     style="fill:url(#radialGradient3);fill-opacity:1;stroke:#2e2e2e;stroke-width:18.6212;stroke-dasharray:none;stroke-opacity:1"
     id="path2"
     cx="128"
     cy="128"
     r="204.68941" />
  <g
     id="g5"
     transform="translate(0,-3)">
    <path
       d="m 127.21252,25.446657 c -1.24176,4.02077 -1.5444,7.704333 -0.78274,9.525672 0.58632,1.40278 0.55513,1.599626 -0.63648,4.004332 -4.4153,8.909003 -10.1651,18.153953 -13.87143,22.304548 -1.63714,1.83314 -2.95477,2.82242 -4.9759,3.734566 -2.08942,0.943334 -3.55838,2.069187 -6.12115,4.690967 -7.736372,7.914667 -22.764836,19.189599 -33.455557,25.099151 -4.336902,2.397539 -19.276852,9.396267 -28.444242,13.324727 -6.079839,2.60534 -7.859869,3.84753 -7.859869,5.48382 0,0.53321 0.848075,2.20829 1.884564,3.72235 1.967602,2.87384 4.501712,7.64996 5.604378,10.56173 0.391581,1.03439 0.779791,4.18432 0.988859,8.02511 0.189679,3.47744 0.51677,8.69361 0.727102,11.59149 0.365869,5.04039 0.343952,5.311 -0.501595,6.24001 -0.81309,0.89275 -0.834166,1.06262 -0.2626,2.10754 2.684588,4.9072 24.561727,8.60594 60.265187,10.1887 12.039973,0.53363 44.389913,0.53827 57.325173,0.008 32.08859,-1.31552 54.18324,-4.95946 59.31889,-9.78405 1.17517,-1.10393 1.17685,-1.20131 0.0498,-2.63443 -0.74312,-0.94503 -0.92563,-1.8049 -1.00951,-4.76558 -0.0645,-2.26729 0.11634,-4.23321 0.48558,-5.27939 0.38231,-1.0837 0.588,-3.50232 0.588,-6.91358 0,-4.48275 0.15385,-5.70555 1.05672,-8.39561 1.31258,-3.90992 3.1453,-7.5724 5.53568,-11.06334 1.88414,-2.75203 2.26181,-4.38369 1.31089,-5.66338 -0.49612,-0.66767 -5.56181,-3.01927 -20.33779,-9.44053 -8.99752,-3.909917 -18.14173,-8.525434 -22.43858,-11.325094 -8.4268,-5.49057 -18.86799,-13.938022 -25.19189,-20.379939 -2.79165,-2.843917 -4.50255,-4.205813 -6.47901,-5.15758 -5.26674,-2.535372 -11.56282,-10.750156 -18.26607,-23.832517 -2.31703,-4.521941 -2.39206,-4.766838 -1.80026,-5.901119 0.33974,-0.650809 0.61835,-2.100377 0.62004,-3.220747 0.003,-2.114708 -1.47571,-8.645562 -2.10291,-9.289627 -0.19895,-0.20401 -0.7427,0.878002 -1.22322,2.433369 m -12.47794,42.192958 c -2.16529,0.765039 -3.10947,1.922501 -6.18985,7.586732 -6.16035,11.327621 -12.361162,18.708238 -25.930367,30.865804 -3.778401,3.38514 -6.869323,6.22948 -6.869323,6.32052 0,0.0915 1.185702,-0.52351 2.634427,-1.36653 9.735164,-5.66381 21.393245,-10.3219 29.970523,-11.974635 12.58456,-2.424934 33.11793,-1.979402 44.36799,0.963145 6.21262,1.6245 17.84879,6.63919 24.64772,10.6216 1.75895,1.03059 3.32401,1.8736 3.47786,1.8736 0.15385,0 -3.37164,-3.29662 -7.835,-7.32623 -13.25097,-11.963684 -19.89141,-20.104277 -26.46863,-32.448998 -2.31239,-4.339431 -2.83464,-4.804775 -6.1987,-5.522604 -1.7598,-0.375145 -1.77413,0.106219 -0.14879,4.915209 2.79839,8.27885 6.19743,14.170276 14.5374,25.196517 1.09382,1.445771 -3.95501,-3.1238 -5.75612,-5.209845 -5.64652,-6.540128 -9.08182,-12.708905 -11.29348,-20.27962 -0.74522,-2.550128 -1.41415,-4.706564 -1.48708,-4.792132 -0.0729,-0.08556 -1.47528,0.173241 -3.11621,0.575362 -3.71602,0.91088 -6.23116,0.923947 -9.64075,0.05016 -1.46178,-0.374301 -2.88901,-0.680736 -3.17185,-0.680736 -0.29126,0 -0.74859,1.14018 -1.05629,2.634427 -1.27465,6.193226 -4.80015,13.38669 -9.58047,19.549988 -2.51473,3.242242 -8.76359,9.428725 -9.52357,9.428725 -0.193475,0 1.10899,-1.75432 2.8945,-3.898953 7.06449,-8.483705 13.00185,-19.39066 14.22676,-26.133533 0.32751,-1.80279 0.1353,-1.875711 -2.4907,-0.947973 m 9.6947,35.639816 c -4.38706,3.46521 -10.09007,6.31504 -18.96367,9.47508 l -3.36785,1.1992 1.47106,0.39116 c 2.40766,0.63984 10.07616,0.0303 12.8969,-1.02511 2.76467,-1.03438 6.37573,-4.15439 7.9821,-6.89588 0.94882,-1.61985 2.43211,-4.87727 2.19986,-4.83133 -0.0607,0.0122 -1.05925,0.77135 -2.2184,1.68688 m 4.84735,-1.47276 c 0,0.15302 0.6133,1.44283 1.36231,2.86627 1.69826,3.22538 5.57108,7.19346 8.12205,8.32184 2.30313,1.0192 7.89486,1.66833 11.52784,1.33913 3.18703,-0.28916 2.92148,-0.55175 -2.88733,-2.85614 -5.51587,-2.18847 -9.27741,-4.11308 -13.48828,-6.90178 -4.82838,-3.19757 -4.63659,-3.08292 -4.63659,-2.76932 M 94.028413,117.7722 c -5.144089,2.97079 -9.698067,6.15191 -12.098139,8.45168 l -1.970129,1.88751 v 8.56379 c 0,6.0988 0.145421,8.70921 0.505811,9.0696 0.372192,0.37218 4.038895,0.50581 13.875216,0.50581 7.353218,0 13.669528,-0.11508 14.036238,-0.25586 0.56651,-0.2175 0.66598,-1.18486 0.66051,-6.428 -0.007,-6.949 -0.57199,-10.10567 -2.48859,-13.90262 -1.96465,-3.89137 -7.115491,-10.23886 -8.23586,-10.14824 -0.241523,0.0194 -2.169924,1.0348 -4.285057,2.25633 m 59.796047,0.82153 c -6.50682,6.84993 -7.3667,9.04346 -7.60064,19.38686 -0.13614,6.00818 -0.0552,7.60908 0.39832,7.89653 0.31276,0.19854 6.28302,0.36335 13.26783,0.36714 10.8901,0.005 12.77508,-0.0856 13.23411,-0.63859 0.71782,-0.86493 0.33804,-17.78133 -0.42657,-18.99022 -1.27,-2.00891 -12.05515,-9.66392 -15.25524,-10.82813 -0.50539,-0.18378 -1.5385,0.61751 -3.61781,2.8064 m -104.948465,5.10615 0.10327,3.79358 3.055937,0.12392 c 1.680555,0.0679 3.055937,0.008 3.055937,-0.13361 0,-0.14164 -0.932798,-1.33534 -2.072557,-2.65298 -1.13976,-1.31763 -2.561508,-2.96447 -3.159207,-3.65996 l -1.087071,-1.26453 0.103691,3.79358 M 205.1739,123.28215 c -1.02932,1.52081 -2.11977,2.97164 -2.42367,3.22371 -1.04029,0.86326 -0.55133,1.19835 1.74673,1.19835 2.26013,0 2.30354,-0.0232 2.55518,-1.36991 0.14121,-0.75365 0.19727,-2.37057 0.12477,-3.59378 l -0.13193,-2.22387 -1.87108,2.76551 m -160.718265,2.20913 -2.220507,4.53122 -0.146685,5.8303 c -0.141627,5.63473 -0.113386,5.86529 0.843018,6.89167 0.544589,0.58379 2.127774,1.64009 3.518752,2.34696 2.312818,1.17559 2.853192,1.27927 6.322629,1.21394 2.333893,-0.0442 4.685489,0.17704 6.111875,0.57452 4.081467,1.13723 5.058101,1.24008 5.058101,0.53321 0,-0.86199 -3.5099,-4.03763 -5.280658,-4.77738 -2.303544,-0.96272 -5.607328,-0.76967 -7.575352,0.44258 -2.228937,1.37286 -3.004513,1.32607 -3.809594,-0.23098 -0.570301,-1.10267 -0.650388,-2.82748 -0.537846,-11.59191 0.07292,-5.66297 0.0881,-10.29576 0.03456,-10.29576 -0.05395,3.7e-4 -1.097186,2.03925 -2.318297,4.53163 m 164.967919,6.31252 c -0.0577,12.55631 -0.33215,13.30702 -4.13669,11.31792 -4.35502,-2.27741 -7.55848,-1.77371 -11.60455,1.82429 -3.24013,2.88101 -2.04895,3.71475 3.03233,2.12187 2.08816,-0.65418 3.69706,-0.83627 6.78883,-0.76714 3.96218,0.0885 4.11392,0.0557 6.83728,-1.46727 3.98663,-2.22936 4.08063,-2.43084 4.08063,-8.7442 v -5.33672 l -1.68182,-3.31558 c -3.35732,-6.61769 -3.26458,-6.7395 -3.31601,4.36683 m -95.74272,-3.05721 v 5.28024 h 5.63894 c 4.30824,0 5.7536,-0.13868 6.12621,-0.58801 0.32119,-0.38694 0.4468,-2.15095 0.36798,-5.16347 l -0.12013,-4.57548 -6.0065,-0.11676 -6.0065,-0.11718 v 5.28066 m 17.3729,-4.90088 c -0.40128,0.25459 -0.51045,1.58951 -0.42151,5.15674 l 0.11971,4.81362 4.84735,0.12224 c 7.18461,0.18125 6.74413,0.49064 6.74413,-4.73227 0,-2.41103 -0.11507,-4.68339 -0.25585,-5.0501 -0.21413,-0.55808 -1.09171,-0.66556 -5.37424,-0.6605 -2.81525,0.004 -5.36201,0.16102 -5.65959,0.35027 m 45.81545,0.8367 c 0.25501,0.47713 0.65797,0.98717 0.89486,1.13344 0.23689,0.14625 1.35389,1.58065 2.48226,3.18744 l 2.05148,2.92148 0.16524,-1.7324 c 0.15174,-1.59247 0.0232,-1.85591 -1.59457,-3.26923 -0.96778,-0.84554 -2.36803,-1.89046 -3.11158,-2.32251 -1.34672,-0.78232 -1.35009,-0.78189 -0.88769,0.0818 m 11.78495,0.80886 c -3.26036,3.45638 -3.31684,3.59969 -3.31684,8.38171 v 4.36893 h 2.52904 2.52906 v -7.16565 c 0,-3.94109 -0.0565,-7.16565 -0.12519,-7.16565 -0.0687,0 -0.79623,0.71151 -1.61607,1.58066 m -123.025279,5.977 c 0,6.64171 0.01053,6.71632 0.948394,6.85289 0.521403,0.0759 1.4698,0.0675 2.107541,-0.0186 l 1.159151,-0.15637 v -4.40266 -4.40266 l -1.791413,-2.27024 c -0.985486,-1.24851 -1.933883,-2.28036 -2.107544,-2.29344 -0.173661,-0.013 -0.316129,2.9982 -0.316129,6.69104 m 8.957054,-4.53038 c -2.015654,1.56085 -2.21292,1.86391 -2.21292,3.40115 v 1.68772 l 2.148852,-2.68838 c 3.667123,-4.58686 3.683565,-5.20352 0.06407,-2.40049 M 176.4856,138.22714 c 0,6.44487 0.0746,7.19052 0.75577,7.55513 1.13344,0.60654 5.65791,0.76925 5.85476,0.21075 0.0906,-0.25754 -0.50624,-1.27127 -1.32607,-2.25297 -1.20383,-1.44071 -1.49087,-2.13662 -1.49087,-3.61401 0,-1.00614 0.18251,-2.30945 0.40549,-2.89618 0.35322,-0.92858 0.14879,-1.39351 -1.58066,-3.59631 -1.09213,-1.39141 -2.1282,-2.5358 -2.30228,-2.54338 -0.17408,-0.008 -0.31614,3.20388 -0.31614,7.13697 M 48.768511,134.84499 c 0,1.84114 0.157644,3.44457 0.350273,3.56385 0.192629,0.11887 0.848075,-1.1954 1.456734,-2.92106 1.069367,-3.03359 1.079483,-3.15161 0.309388,-3.56385 -1.856324,-0.99349 -2.116395,-0.63479 -2.116395,2.92106 M 203.8845,131.94037 c -3.8e-4,0.12772 0.17114,0.41224 0.38105,0.63227 0.21033,0.22002 0.8662,1.5385 1.458,2.92948 l 1.07611,2.52905 0.0173,-3.26627 0.0173,-3.26669 -1.47444,0.10537 c -0.81098,0.0578 -1.47485,0.2095 -1.47528,0.33679 m -129.445698,2.24285 -1.914913,2.41398 0.418558,2.30902 c 0.344796,1.90227 0.294636,2.56994 -0.286204,3.78726 -0.956402,2.00554 -0.9387,3.97861 0.03582,3.97861 1.272535,0 3.610644,-0.80296 3.965134,-1.36231 0.405911,-0.639 0.391159,-11.05491 -0.01772,-12.51712 -0.272292,-0.97452 -0.376826,-0.90835 -2.200697,1.39056 m 38.39901,8.83608 c 0,1.98152 0.17661,3.71223 0.39242,3.84543 0.21582,0.13362 1.12206,-1.14988 2.01397,-2.85151 l 1.62155,-3.09471 -1.27633,-0.43289 c -0.70181,-0.23815 -1.60806,-0.57621 -2.01397,-0.75114 -0.66978,-0.28915 -0.73764,0.013 -0.73764,3.28482 m 27.99112,-2.75751 -1.30373,0.71994 1.31089,2.87301 c 0.72121,1.58023 1.45,2.73432 1.61986,2.56403 0.40802,-0.4076 0.40128,-6.91738 -0.007,-6.89461 -0.17409,0.01 -0.90288,0.34141 -1.61986,0.73763 m -75.381752,9.20533 c -0.166493,3.85554 -0.489369,7.50116 -0.717829,8.10139 -0.331725,0.87295 -0.267233,1.19962 0.322877,1.63082 0.856926,0.62678 5.884681,0.73638 6.255608,0.13657 0.136989,-0.22171 -0.06449,-1.12247 -0.447641,-2.00217 -0.510025,-1.17137 -0.754078,-3.37502 -0.912146,-8.23796 l -0.215388,-6.63876 h -1.991208 -1.991628 l -0.302645,7.01011 m 121.740522,-6.70157 -2.1539,0.15302 -0.26682,2.82494 c -0.14669,1.55411 -0.26808,4.49455 -0.26976,6.53465 -0.002,2.45908 -0.21497,4.11898 -0.63227,4.92575 -0.92901,1.79689 -0.024,2.53495 3.10778,2.53495 3.20727,0 3.98748,-0.57536 3.42518,-2.5261 -0.23309,-0.81014 -0.42404,-4.46125 -0.42404,-8.11404 0,-3.65322 -0.14204,-6.60672 -0.31612,-6.56373 -0.17409,0.043 -1.28519,0.14668 -2.47005,0.23056"
       stroke="none"
       fill="#000000"
       fill-rule="evenodd"
       id="path1"
       style="fill:#2e2e2e;fill-opacity:1;stroke-width:0.421507" />
    <path
       d="m 80.26947,206.58855 q 0,3.97567 -2.846214,6.7767 -2.801036,2.80104 -6.7767,2.80104 -3.930486,0 -6.731522,-2.80104 -2.755858,-2.80103 -2.755858,-6.7767 v -1.76194 h -8.086863 l 3.930486,-6.7767 h 4.156377 l 0.04518,-31.85049 q 2.801036,0 4.74369,1.98783 1.987832,1.94266 1.987832,4.78887 h -0.04518 v 7.00259 h 5.918318 l 3.930486,6.7767 h -9.848804 l -0.09036,19.83314 q 0,1.17463 0.813204,1.98784 0.858382,0.8132 2.03301,0.8132 1.174628,0 1.987832,-0.8132 0.858382,-0.81321 0.858382,-1.98784 v -8.53864 l 6.7767,6.7767 z m 32.09897,-1.76194 H 89.960147 q -1.174628,0 -2.03301,0.81321 -0.813204,0.8132 -0.813204,1.98783 0,1.12945 0.813204,1.89747 0.858382,0.81321 2.03301,0.81321 h 15.857483 v 3.4787 q 0,1.40052 -0.99392,2.39444 -0.99392,0.99391 -2.39443,0.99391 H 89.960147 q -3.975664,0 -6.821878,-2.84621 -2.801036,-2.80104 -2.801036,-6.73152 0,-1.4457 0.45178,-2.80104 h -4.156376 l 3.930486,-6.7767 h 8.222396 q -0.361424,-1.03909 -0.361424,-1.80712 l 0.04518,-6.09903 q 0,-1.40052 0.993916,-2.39443 0.993916,-0.99392 2.394435,-0.99392 h 5.963496 q 2.439608,0 4.743688,-1.03909 2.93657,-1.31017 2.93657,-3.43353 l 0.0452,11.24932 H 95.200796 v 2.30408 q 0,1.08427 2.123366,1.71676 1.536052,0.49696 2.846218,0.49696 h 12.19806 z m 28.62023,-6.7767 -0.0452,6.7767 h -14.36661 v -11.2945 h -8.94524 v 11.2945 h -14.41176 l 3.93049,-6.7767 h 3.7046 v -9.80363 l 6.7767,-3.8853 v 5.331 q 2.03301,-2.93657 5.60207,-2.93657 h 6.7767 q 1.40052,0 2.39443,0.99392 0.99392,0.99391 0.99392,2.39443 v 7.90615 z m 15.20237,-23.4022 q 0,1.40051 -1.03909,2.39443 -0.99392,0.99392 -2.34926,0.99392 -1.40051,0 -2.39443,-0.99392 -0.99392,-0.99392 -0.99392,-2.39443 0,-1.40052 0.99392,-2.39444 0.99392,-0.99391 2.39443,-0.99391 1.35534,0 2.34926,0.99391 1.03909,0.99392 1.03909,2.39444 z m 18.0712,23.4022 -0.0452,6.7767 h -42.37697 l 3.93049,-6.7767 h 6.18938 v -7.95133 q 0,-1.35534 0.99392,-2.34925 0.99391,-0.99392 2.39443,-0.99392 h 11.2945 v 0 q 2.71068,0.27107 4.47263,2.30408 l 0.0452,-22.72454 q 2.62033,0 4.65334,2.07819 2.07819,2.07819 2.07819,4.69851 l 0.0452,24.93826 z m -13.10162,0 v -4.5178 h -12.46913 v 4.5178 z m 41.76707,6.7767 H 165.1137 l 3.93048,-6.7767 h 4.29191 q 0.54214,-4.5178 3.02693,-7.68026 2.89139,-3.61424 7.13812,-3.61424 h 3.02693 q 2.80104,0 5.46654,-0.94874 3.56906,-1.26498 3.56906,-3.56906 v 15.8123 h 7.36402 z m -14.05036,-6.7767 q 0,-0.72285 0,-2.2589 -0.0452,-1.4457 -0.0452,-2.2589 h -5.24065 q -1.35534,0 -2.34926,1.67159 -0.76802,1.26498 -1.03909,2.84621 z"
       id="text1"
       style="font-size:45.178px;font-family:Alhambra;-inkscape-font-specification:'Alhambra, Normal';letter-spacing:-1.69418px;fill:#2b2b2b;fill-opacity:1;stroke-width:0.847088"
       aria-label="Tenda" />
  </g>
</svg>
