<?xml version="1.0" encoding="UTF-8" standalone="no"?>
<!-- Generator: Adobe Illustrator 19.2.1, SVG Export Plug-In . SVG Version: 6.00 Build 0)  -->

<svg
   version="1.1"
   id="Layer_1"
   x="0px"
   y="0px"
   viewBox="0 0 256 256"
   xml:space="preserve"
   sodipodi:docname="reddit-white.svg"
   inkscape:version="1.3.2 (091e20ef0f, 2023-11-25, custom)"
   width="256"
   height="256"
   xmlns:inkscape="http://www.inkscape.org/namespaces/inkscape"
   xmlns:sodipodi="http://sodipodi.sourceforge.net/DTD/sodipodi-0.dtd"
   xmlns="http://www.w3.org/2000/svg"
   xmlns:svg="http://www.w3.org/2000/svg"><defs
   id="defs7">
	
	
</defs><sodipodi:namedview
   id="namedview7"
   pagecolor="#ffffff"
   bordercolor="#000000"
   borderopacity="0.25"
   inkscape:showpageshadow="2"
   inkscape:pageopacity="0.0"
   inkscape:pagecheckerboard="0"
   inkscape:deskcolor="#d1d1d1"
   inkscape:zoom="2.7264"
   inkscape:cx="266.652"
   inkscape:cy="189.26056"
   inkscape:window-width="2514"
   inkscape:window-height="1343"
   inkscape:window-x="20"
   inkscape:window-y="71"
   inkscape:window-maximized="1"
   inkscape:current-layer="Layer_1" />
<style
   type="text/css"
   id="style1">
	.st0{fill:#FF4500;}
	.st1{fill:#FFFFFF;}
</style>
<path
   id="circle1"
   style="stroke-width:0.318171;fill:#ffffff"
   class="st0"
   d="M 128 0 A 128 128 0 0 0 0 128 A 128 128 0 0 0 128 256 A 128 128 0 0 0 256 128 A 128 128 0 0 0 128 0 z M 137.67188 51.066406 C 137.93511 51.071316 138.20228 51.102452 138.46875 51.162109 L 169.83984 57.429688 C 171.84432 53.929815 175.47095 51.575731 179.51172 51.162109 C 186.54328 50.398501 192.84381 55.487969 193.60742 62.519531 C 194.37103 69.551093 189.27961 75.851626 182.24805 76.615234 C 175.21648 77.378844 168.91595 72.28742 168.15234 65.255859 L 140.75781 59.498047 L 132.45508 99.427734 C 150.04989 99.809539 167.16609 105.25082 181.73828 115.17773 C 185.04725 112.02785 189.40663 110.15127 193.98828 109.99219 C 204.32881 109.6422 212.98343 117.69128 213.36523 128 C 213.4925 135.19064 209.45242 141.80797 203.02539 145.02148 C 203.15266 146.89869 203.15266 148.77709 203.02539 150.6543 C 203.02539 179.35325 169.6171 202.64258 128.41406 202.64258 C 87.21102 202.64258 53.802734 179.32143 53.802734 150.6543 C 53.675466 148.77709 53.675466 146.89869 53.802734 145.02148 C 51.925529 144.19425 50.238974 143.01853 48.775391 141.65039 C 41.234757 134.58702 40.88584 122.751 47.949219 115.24219 C 55.012598 107.70156 66.848604 107.35068 74.357422 114.41406 C 89.120519 104.42351 106.45981 98.950416 124.27734 98.664062 L 133.72656 54.248047 L 133.72656 54.183594 C 134.14416 52.290482 135.82922 51.032041 137.67188 51.066406 z M 98.1875 128 C 91.124122 128 85.365234 133.75888 85.365234 140.82227 C 85.365234 147.88565 91.092305 153.58093 98.1875 153.64453 C 105.25088 153.64453 111.00977 147.88565 111.00977 140.82227 C 111.00977 133.75888 105.25088 128 98.1875 128 z M 157.43164 128.44531 C 150.36827 128.44531 144.60938 134.2042 144.60938 141.26758 C 144.60938 148.33095 150.36827 154.08984 157.43164 154.08984 L 157.33594 154.56641 L 157.9707 154.56641 C 165.03409 154.28005 170.54027 148.33095 170.25391 141.26758 C 170.25391 134.2042 164.49502 128.44531 157.43164 128.44531 z M 99.130859 170.35742 C 98.355319 170.35742 97.583606 170.61955 96.947266 171.14453 C 95.483683 172.35358 95.259703 174.54814 96.46875 176.01172 C 105.56842 182.85238 116.7052 186.35225 128.0957 185.875 C 139.48619 186.35225 150.62103 182.85238 159.7207 176.01172 L 159.7207 176.52148 C 161.12062 175.15336 161.15329 172.86284 159.78516 171.46289 C 158.41703 170.06297 156.12651 170.03031 154.72656 171.39844 C 146.93139 176.96641 137.51386 179.70243 127.96875 179.19336 C 118.42365 179.6388 109.0376 176.77615 101.33789 171.14453 C 100.68564 170.61955 99.9064 170.35742 99.130859 170.35742 z " />

</svg>
